<svg xmlns="http://www.w3.org/2000/svg" height="512" viewBox="0 0 64 64" width="512"><rect id="backgroundrect" width="100%" height="100%" x="0" y="0" fill="none" stroke="none" class="" style=""/><g class="currentLayer" style=""><title>Layer 1</title><rect fill="#ffb655" height="32" rx="4" width="54" x="5.46875" y="8.34375" id="svg_1" class="" fill-opacity="1"/><path d="m14.46875,37.34375 a4,4 0 0 1 -4,-4 v-24 a3.977,3.977 0 0 1 0.14100000000000001,-1 h-1.141 a4,4 0 0 0 -4,4 v24 a4,4 0 0 0 4,4 h46 a3.989,3.989 0 0 0 3.859,-3 z" fill="#ffb655" id="svg_2" class="" stroke="none" fill-opacity="1"/><path d="m41.46875,48.34375 h3 v-8 h-8 v3 a5,5 0 0 0 5,5 z" fill="#ffbcab" id="svg_3" class=""/><circle cx="50.46875" cy="31.34375" fill="#f7941d" r="3" id="svg_4" class=""/><circle cx="45.46875" cy="31.34375" fill="#f15a29" r="3" id="svg_5" class=""/><path d="m5.46875,14.34375 h54.000001367506684 v8.343749546560733 h-54.000001367506684 z" fill="#58595b" id="svg_6" class=""/><path d="m34.8125,32.34375 a4,4 0 0 0 -4,4 v4 h-9 l-3.6,8.088 a2,2 0 0 0 0.0790000000000001,1.784 l4.264,7.675 a2,2 0 0 1 0.252,0.971 v2.482 h16.005 v-25 a4,4 0 0 0 -4,-4 z" fill="#ffbcab" id="svg_7" class=""/><path d="m52.75,0 a10,10 0 1 0 10,10 a10,10 0 0 0 -10,-10 z" fill="#7ed63e" id="svg_8" class=""/><path d="m8.59375,32.3125 h21.406248791005343 v2.0937498807907104 h-21.406248791005343 z" fill="#ffffff" id="svg_9" class="" fill-opacity="1"/><g fill="#f1f2f2" id="svg_10" class=""><path d="m24.201171875,26.43750001795638 h-2.09765625 a1.048828125,1.0000002589076757 0 0 0 0,2.0000005178153515 h2.09765625 a1.048828125,1.0000002589076757 0 0 0 0,-2.0000005178153515 z" id="svg_11"/><path d="m17.908203125,26.43750001795638 h-2.09765625 a1.048828125,1.0000002589076757 0 0 0 0,2.0000005178153515 h2.09765625 a1.048828125,1.0000002589076757 0 0 0 0,-2.0000005178153515 z" id="svg_12"/><path d="m11.615234375,26.43750001795638 h-2.09765625 a1.048828125,1.0000002589076757 0 0 0 0,2.0000005178153515 h2.09765625 a1.048828125,1.0000002589076757 0 0 0 0,-2.0000005178153515 z" id="svg_13"/></g><path d="M56.82812239638637,12.971926453419574 L56.01255277810727,13.718754021124186 L52.75000060554181,10.731193120207166 L49.48744843297638,13.718754021124186 L48.671878814697266,12.971926453419574 L51.934430987262715,9.984365552502547 L48.671878814697266,6.99680465158551 L49.48744843297638,6.249977083880898 L52.75000060554181,9.237537984797925 L56.01255277810727,6.249977083880898 L56.82812239638637,6.99680465158551 L53.56557022382091,9.984365552502547 z" class="" id="svg_14" fill-opacity="1" fill="#e84141"/></g></svg>